<svg width="16" height="16" viewBox="0 0 16 16" fill="none" xmlns="http://www.w3.org/2000/svg">
<g id="Icon">
<path id="Icon_2" fill-rule="evenodd" clip-rule="evenodd" d="M8 2C11.3137 2 14 4.68629 14 8C14 11.3137 11.3137 14 8 14C4.68629 14 2 11.3137 2 8C2 4.68629 4.68629 2 8 2ZM8 8C8.41421 8 8.75 8.33579 8.75 8.75V11.25C8.75 11.6642 8.41421 12 8 12C7.58579 12 7.25 11.6642 7.25 11.25V8.75C7.25 8.33579 7.58579 8 8 8ZM8 4C8.41421 4 8.75 4.33579 8.75 4.75V5.25C8.75 5.66421 8.41421 6 8 6C7.58579 6 7.25 5.66421 7.25 5.25V4.75C7.25 4.33579 7.58579 4 8 4Z" fill="#555F6D"/>
</g>
</svg>
